<svg width="42" height="42" viewBox="0 0 42 42" fill="none" xmlns="http://www.w3.org/2000/svg">
<path d="M42 21.0002C42 32.5982 32.598 42.0002 21 42.0002C9.40202 42.0002 0 32.5982 0 21.0002C0 9.40226 9.40202 0.000244141 21 0.000244141C32.598 0.000244141 42 9.40226 42 21.0002Z" fill="#F4F4F4"/>
<path fill-rule="evenodd" clip-rule="evenodd" d="M27.2879 14.4093C28.1666 15.2879 28.1666 16.7126 27.2879 17.5912L17.591 27.2881C16.7123 28.1668 15.2877 28.1668 14.409 27.2881C13.5303 26.4095 13.5303 24.9848 14.409 24.1062L24.1059 14.4093C24.9846 13.5306 26.4092 13.5306 27.2879 14.4093Z" fill="#5A5A5A"/>
<path fill-rule="evenodd" clip-rule="evenodd" d="M27.2883 27.4822C26.4096 28.3609 24.985 28.3609 24.1063 27.4822L14.4094 17.7853C13.5307 16.9066 13.5307 15.482 14.4094 14.6033C15.288 13.7247 16.7127 13.7247 17.5913 14.6033L27.2883 24.3003C28.1669 25.1789 28.1669 26.6036 27.2883 27.4822Z" fill="#5A5A5A"/>
</svg>
