<svg width="421" height="419" viewBox="0 0 421 419" fill="none" xmlns="http://www.w3.org/2000/svg">
<g clip-path="url(#clip0_63_2796)">
<path d="M420.943 208.586C423.928 325.602 315.53 428.342 196.548 418.322C44.9172 410.355 -47.5964 238.777 25.4538 109.237C130.465 -81.2311 419.067 -6.40363 420.943 208.586ZM210.347 403.048C210.366 403.405 210.385 403.782 210.424 404.14C352.83 402.614 447.277 253.863 387.183 127.224C322.611 -14.9919 116.149 -23.8816 40.7834 113.795C-32.1328 239.154 61.6248 405.345 210.347 403.066V403.048Z" fill="#126D76"/>
<path d="M162.656 285.467C177.565 290.665 190.12 298.218 202.636 307.296C194.866 308.087 188.11 307.484 181.622 303.887C188.263 312.927 189.01 325.923 201.296 331.309C211.306 278.781 250.539 239.135 265.409 188.284C272.356 257.969 301.178 299.894 378.037 283.64C377.673 307.748 362.056 332.816 340.545 345.435C336.009 328.993 329.005 313.454 319.551 299.103C319.225 299.272 318.881 299.442 318.555 299.593C327.895 335.038 310.517 350.256 291.207 376.04C290.403 381.539 286.193 383.611 281.829 385.664C248.587 401.541 208.894 405.346 173.642 394.855C182.713 375.173 164.379 355.379 169.068 334.492C172.493 307.089 184.914 311.063 162.618 285.448L162.656 285.467Z" fill="#126D76"/>
<path d="M255.166 189.074C257.214 179.959 259.242 170.824 261.271 161.784C288.811 166.417 289.232 136.659 317.862 142.102C365.229 151.501 332.503 177.435 310.705 194.555C288.485 209.246 278.648 168.319 256.161 189.338C255.836 189.244 255.491 189.169 255.166 189.074Z" fill="#126D76"/>
<path d="M297.787 55.5224C330.705 85.1671 332.829 115.17 293.539 140.2C287.127 143.816 284.62 154.891 275.874 153.064C261.367 150.088 252.698 135.812 252.583 121.63C347.03 110.085 311.28 69.7609 259.224 28.2131C259.511 27.8176 259.817 27.4409 260.104 27.0454C303.299 46.9718 373.249 103.304 305.251 139.597C341.173 109.237 332.906 81.6263 298.189 54.9762C298.055 55.1646 297.921 55.3529 297.787 55.5413V55.5224Z" fill="#126D76"/>
<path d="M250.344 117.75C234.918 112.797 217.235 106.845 202.135 115.32C167.418 128.391 131.458 103.851 104.626 83.9807C117.104 107.768 140.969 119.69 164.031 131.537C166.423 127.45 168.739 123.476 171.074 119.52C171.456 119.709 171.858 119.897 172.241 120.085C171.38 130.708 171.801 141.707 162.04 149.824C154.959 140.991 144.031 137.695 134.941 131.687C113.678 117.166 99.1143 95.3564 96.7412 70.0059C118.329 98.4264 153.313 111.026 188.011 114.529C208.776 106.393 231.914 99.9519 250.363 117.75H250.344Z" fill="#126D76"/>
<path d="M106.695 254.259C113.547 265.22 124.36 257.837 120.743 247.083C125.948 247.912 130.943 248.722 135.9 249.513C135.556 258.553 139.364 260.079 147.134 262.866C150.12 259.476 155.536 257.272 155.67 252.376C155.459 246.443 153.01 238.985 145.584 241.96C137.259 243.693 129.738 239.192 121.814 237.365C130.216 233.881 137.737 241.433 146.043 238.212C149.909 236.687 153.201 238.118 155.88 241.414C159.172 245.445 159.115 250.436 160.014 255.144C159.861 257.084 157.392 258.534 156.435 260.154C151.766 267.669 152.033 268.045 159.172 271.078C173.545 280.551 183.229 262.697 192.032 254.485C192.319 254.73 192.606 254.956 192.893 255.201C190.769 259.815 188.645 264.41 186.52 269.025C191.764 271.398 210.252 269.232 228.146 260.757C228.318 261.02 228.49 261.284 228.662 261.567C216.72 270.23 202.041 274.6 187.305 270.701C178.98 272.189 172.99 280.457 163.229 278.272C152.55 278.14 154.923 289.987 139.823 286.371C130.159 285.806 126.982 274.713 117.489 273.036C108.494 270.871 107.289 262.471 106.695 254.297V254.259Z" fill="#126D76"/>
<path d="M157.545 153.591C153.832 157.678 147.976 162.481 146.005 168.225C135.019 193.708 113.259 167.585 103.384 155.211C90.466 136.999 133.45 130.463 142.311 140.426C147.115 145.135 152.091 149.015 157.545 153.591Z" fill="#126D76"/>
<path d="M217.659 190.845C231.879 184.027 232.779 176.286 247.515 189.112C247.343 189.338 247.17 189.564 247.017 189.809C243.094 188.962 239.974 187.926 238.845 192.936C232.683 201.505 214.272 185.063 192.761 212.448C201.201 147.64 232.281 171.785 251.151 141.274C254.481 154.759 253.199 167.039 249.448 179.45C236.185 167.679 220.683 177.002 217.679 190.845H217.659ZM236.223 192.013C239.649 189.093 239.764 187.323 236.491 185.647C232.606 186.532 233.429 188.905 236.223 192.013Z" fill="#126D76"/>
<path d="M148.492 204.104C148.492 198.209 148.301 193.011 148.569 187.831C149.028 182.2 144.301 184.441 140.187 184.008C142.962 181.541 146.598 180.203 147.689 177.096C144.971 165.607 174.08 135.36 173.697 161.087C158.789 153.855 164.301 196.156 148.512 204.104H148.492Z" fill="#126D76"/>
<path d="M245.427 196.947C246.557 197.795 247.494 198.492 248.413 199.189C242.365 224.501 209.41 206.967 220.529 200.658C227.208 209.284 234.308 208.285 245.427 196.947Z" fill="#126D76"/>
<path d="M150.636 205.893C144.148 213.86 136.78 221.224 130.464 229.285C126.579 234.502 122.005 231.432 116.072 231.131C127.88 222.166 138.981 213.728 150.081 205.291C150.272 205.498 150.444 205.686 150.636 205.893Z" fill="#126D76"/>
<path d="M153.754 250.473C153.812 254.861 152.97 256.123 148.223 257.63C144.587 259.702 134.865 254.711 140.472 251.132C143.573 249.588 146.386 247.874 147.343 244.183C151.113 241.64 152.702 247.629 154.635 249.908C154.347 250.096 154.041 250.285 153.754 250.473Z" fill="#126D76"/>
<path d="M114.004 240.34C115.937 245.086 121.813 249.739 117.526 254.617C111.095 255.634 109.354 244.427 114.004 240.34Z" fill="#126D76"/>
</g>
<defs>
<clipPath id="clip0_63_2796">
<rect width="421" height="419" fill="white"/>
</clipPath>
</defs>
</svg>
