<svg width="32" height="33" viewBox="0 0 32 33" fill="none" xmlns="http://www.w3.org/2000/svg">
<path d="M26.6 28.9717C23.8222 28.9717 21.0778 28.3663 18.3667 27.1557C15.6556 25.945 13.1889 24.2281 10.9667 22.005C8.74445 19.7819 7.028 17.3152 5.81733 14.605C4.60667 11.8948 4.00089 9.15035 4 6.37168C4 5.97168 4.13333 5.63835 4.4 5.37168C4.66667 5.10501 5 4.97168 5.4 4.97168H10.8C11.1111 4.97168 11.3889 5.07746 11.6333 5.28901C11.8778 5.50057 12.0222 5.75035 12.0667 6.03835L12.9333 10.705C12.9778 11.0606 12.9667 11.3606 12.9 11.605C12.8333 11.8495 12.7111 12.0606 12.5333 12.2383L9.3 15.505C9.74444 16.3272 10.272 17.1215 10.8827 17.8877C11.4933 18.6539 12.1658 19.393 12.9 20.105C13.5889 20.7939 14.3111 21.433 15.0667 22.0223C15.8222 22.6117 16.6222 23.1503 17.4667 23.6383L20.6 20.505C20.8 20.305 21.0613 20.1552 21.384 20.0557C21.7067 19.9561 22.0231 19.9281 22.3333 19.9717L26.9333 20.905C27.2444 20.9939 27.5 21.1552 27.7 21.389C27.9 21.6228 28 21.8837 28 22.1717V27.5717C28 27.9717 27.8667 28.305 27.6 28.5717C27.3333 28.8383 27 28.9717 26.6 28.9717Z" fill="#126D76"/>
</svg>
