<svg width="32" height="33" viewBox="0 0 32 33" fill="none" xmlns="http://www.w3.org/2000/svg">
<path d="M15.9998 30.3049C14.1554 30.3049 12.4221 29.9546 10.7998 29.2542C9.17762 28.5537 7.76651 27.604 6.56651 26.4049C5.36651 25.2057 4.41673 23.7946 3.71717 22.1715C3.01762 20.5484 2.66739 18.8151 2.66651 16.9715C2.66562 15.128 3.01584 13.3946 3.71717 11.7715C4.41851 10.1484 5.36828 8.7373 6.56651 7.53818C7.76473 6.33907 9.17584 5.38929 10.7998 4.68885C12.4238 3.98841 14.1572 3.63818 15.9998 3.63818C17.8425 3.63818 19.5758 3.98841 21.1998 4.68885C22.8238 5.38929 24.235 6.33907 25.4332 7.53818C26.6314 8.7373 27.5816 10.1484 28.2838 11.7715C28.9861 13.3946 29.3358 15.128 29.3332 16.9715V18.9049C29.3332 20.216 28.8834 21.3329 27.9838 22.2555C27.0843 23.1782 25.9785 23.6391 24.6665 23.6382C23.8887 23.6382 23.1554 23.4715 22.4665 23.1382C21.7776 22.8049 21.1998 22.3271 20.7332 21.7049C20.0887 22.3493 19.3607 22.8329 18.5492 23.1555C17.7376 23.4782 16.8878 23.6391 15.9998 23.6382C14.1554 23.6382 12.5834 22.988 11.2838 21.6875C9.98428 20.3871 9.33406 18.8151 9.33317 16.9715C9.33228 15.128 9.98251 13.556 11.2838 12.2555C12.5852 10.9551 14.1572 10.3049 15.9998 10.3049C17.8425 10.3049 19.4149 10.9551 20.7172 12.2555C22.0194 13.556 22.6692 15.128 22.6665 16.9715V18.9049C22.6665 19.4826 22.8554 19.9715 23.2332 20.3715C23.6109 20.7715 24.0887 20.9715 24.6665 20.9715C25.2443 20.9715 25.7221 20.7715 26.0998 20.3715C26.4776 19.9715 26.6665 19.4826 26.6665 18.9049V16.9715C26.6665 13.9937 25.6332 11.4715 23.5665 9.40485C21.4998 7.33818 18.9776 6.30485 15.9998 6.30485C13.0221 6.30485 10.4998 7.33818 8.43317 9.40485C6.36651 11.4715 5.33317 13.9937 5.33317 16.9715C5.33317 19.9493 6.36651 22.4715 8.43317 24.5382C10.4998 26.6049 13.0221 27.6382 15.9998 27.6382H21.3332C21.711 27.6382 22.0278 27.7662 22.2838 28.0222C22.5398 28.2782 22.6674 28.5946 22.6665 28.9715C22.6656 29.3484 22.5376 29.6653 22.2825 29.9222C22.0274 30.1791 21.711 30.3066 21.3332 30.3049H15.9998ZM15.9998 20.9715C17.111 20.9715 18.0554 20.5826 18.8332 19.8049C19.611 19.0271 19.9998 18.0826 19.9998 16.9715C19.9998 15.8604 19.611 14.916 18.8332 14.1382C18.0554 13.3604 17.111 12.9715 15.9998 12.9715C14.8887 12.9715 13.9443 13.3604 13.1665 14.1382C12.3887 14.916 11.9998 15.8604 11.9998 16.9715C11.9998 18.0826 12.3887 19.0271 13.1665 19.8049C13.9443 20.5826 14.8887 20.9715 15.9998 20.9715Z" fill="#126D76"/>
</svg>
