<svg width="48" height="49" viewBox="0 0 48 49" fill="none" xmlns="http://www.w3.org/2000/svg">
<path d="M45.9652 21.9291C45.9652 21.9291 45.7642 18.8999 45.7642 17.4867C45.7642 16.2237 45.2819 14.9232 44.5336 14.5162C43.5424 12.3415 40.0251 12.4515 38.5643 12.4515C36.855 12.4515 33.0883 12.3484 31.4296 12.3484C29.7709 12.3484 26.1489 11.8705 24.2392 11.3156C22.3289 10.7601 21.0973 9.72563 20.8463 10.028C20.5953 10.3313 20.0922 10.6848 19.3887 10.5834C20.8463 10.028 20.7458 8.46371 20.5449 8.26186C20.3438 8.05994 19.5392 8.00926 18.7857 8.91769C19.2377 8.05947 18.3831 6.89897 17.9311 6.64637C17.4785 6.39377 17.0264 6.49466 17.3779 6.74726C17.73 6.99993 17.9311 8.11021 17.4285 8.56473C17.4285 8.56473 15.8703 9.52338 15.5689 9.72577C15.2673 9.92769 13.357 12.4009 13.005 12.6028C12.6535 12.8046 12 13.1576 12 13.36C12 13.562 12.7541 15.1011 13.1561 15.1011C13.5582 15.1011 16.6995 15.4797 18.6597 15.6314C18.6597 15.6314 19.9169 17.6774 20.5449 19.4927C20.8847 20.4759 21.2485 22.54 21.7011 23.3529C22.6556 25.0688 23.9128 26.5326 23.9128 27.4411C23.9128 28.3501 23.9128 30.3688 23.9128 30.3688L23.3598 31.328C23.3598 31.328 23.7618 31.5806 24.5159 31.5806C25.27 31.5806 25.37 31.0252 25.37 30.7726C25.37 30.5205 25.37 26.9872 25.37 26.9872C25.37 26.9872 25.169 26.028 25.169 25.4218C25.169 24.8162 25.9736 21.5856 26.0236 21.1317C26.0236 21.1317 26.1241 22.242 26.1241 22.5449C26.1241 22.5449 28.4671 23.3604 29.668 23.4805C31.6782 23.6824 33.0858 24.0867 36.0012 23.7833C38.3591 23.5387 40.2263 22.1411 40.2263 22.1411C40.2263 22.1411 40.0247 21.1819 40.2763 20.6773C40.6783 23.5041 42.9906 25.4726 42.9906 25.6237C42.9906 25.7754 42.6359 30.3203 42.6359 30.3203L42.1833 31.3804C42.1833 31.3804 42.337 31.6309 43.0911 31.6309C43.8452 31.6309 44.0962 31.1764 44.0962 30.6215C44.0962 30.0661 45.1013 25.3209 45.1518 24.9679C45.2024 24.6143 44.8503 22.0904 44.7498 21.8383C44.6711 21.6401 44.7466 18.3593 44.7833 16.7161C45.2178 18.1832 45.2694 20.588 45.1615 21.3229C44.9354 22.862 45.5635 24.3516 45.5635 24.3516C45.5635 24.3516 45.7645 24.8562 46.066 23.7459C46.3673 22.6356 45.9652 21.9291 45.9652 21.9291Z" fill="#26A69A"/>
<path d="M38.2198 32.619C38.2198 32.619 38.0025 29.3474 38.0025 27.8212C38.0025 26.4572 37.4811 25.0527 36.6724 24.6131C35.6009 22.2644 31.7992 22.3832 30.2202 22.3832C28.3727 22.3832 24.3013 22.2719 22.5085 22.2719C20.7156 22.2719 16.8006 21.7557 14.7364 21.1564C12.6717 20.5565 11.3405 19.4393 11.0692 19.7658C10.7978 20.0933 10.2541 20.4752 9.49365 20.3656C11.0692 19.7658 10.9605 18.0764 10.7433 17.8584C10.526 17.6403 9.65635 17.5856 8.84182 18.5667C9.33044 17.6398 8.40666 16.3865 7.91811 16.1136C7.42892 15.8408 6.9403 15.9498 7.32026 16.2226C7.70079 16.4955 7.91811 17.6946 7.37487 18.1855C7.37487 18.1855 5.69068 19.2208 5.36484 19.4394C5.03892 19.6575 2.97412 22.3285 2.59366 22.5466C2.2137 22.7645 1.50732 23.1458 1.50732 23.3644C1.50732 23.5825 2.32236 25.2447 2.75694 25.2447C3.19152 25.2447 6.58689 25.6537 8.70566 25.8175C8.70566 25.8175 10.0645 28.0272 10.7434 29.9877C11.1107 31.0496 11.5038 33.2788 11.993 34.1567C13.0248 36.0099 14.3837 37.5908 14.3837 38.572C14.3837 39.5537 14.3837 41.7339 14.3837 41.7339L13.7859 42.7698C13.7859 42.7698 14.2205 43.0426 15.0355 43.0426C15.8506 43.0426 15.9587 42.4428 15.9587 42.17C15.9587 41.8977 15.9587 38.0817 15.9587 38.0817C15.9587 38.0817 15.7414 37.0458 15.7414 36.3911C15.7414 35.7371 16.6111 32.248 16.6651 31.7578C16.6651 31.7578 16.7738 32.9569 16.7738 33.284C16.7738 33.284 19.3064 34.1648 20.6043 34.2945C22.7772 34.5125 24.2986 34.9492 27.4498 34.6216C29.9984 34.3574 32.0166 32.848 32.0166 32.848C32.0166 32.848 31.7987 31.812 32.0707 31.267C32.5052 34.3199 35.0045 36.446 35.0045 36.6092C35.0045 36.773 34.6211 41.6815 34.6211 41.6815L34.1319 42.8264C34.1319 42.8264 34.298 43.0969 35.1131 43.0969C35.9283 43.0969 36.1995 42.6061 36.1995 42.0068C36.1995 41.4069 37.286 36.2822 37.3406 35.9009C37.3952 35.5191 37.0147 32.7931 36.906 32.5209C36.8209 32.3069 36.9025 28.7637 36.9422 26.989C37.4119 28.5734 37.4676 31.1706 37.351 31.9643C37.1067 33.6266 37.7855 35.2352 37.7855 35.2352C37.7855 35.2352 38.0028 35.7803 38.3287 34.5812C38.6543 33.3821 38.2198 32.619 38.2198 32.619Z" fill="#26A69A"/>
</svg>
