<svg width="48" height="49" viewBox="0 0 48 49" fill="none" xmlns="http://www.w3.org/2000/svg">
<path d="M23.4004 30.05C22.0504 30.05 20.8504 29.6 19.8004 28.55C17.8504 26.6 17.8504 23.45 19.8004 21.5L20.1004 21.2C21.9004 19.4 22.9504 17 23.1004 14.75C23.2504 11.45 24.7504 8.45005 27.4504 6.50005C30.9004 4.10005 35.4004 3.95005 38.8504 6.35005C41.5504 8.15005 43.2004 10.85 43.5004 14C43.8004 17.15 42.7504 20.15 40.5004 22.4C38.8504 24.05 36.4504 25.25 34.0504 25.4C32.1004 25.55 29.2504 26.15 27.0004 28.4L26.7004 28.7C25.9504 29.45 24.6004 30.05 23.4004 30.05Z" fill="#26A69A"/>
<path d="M10.9498 43.55C9.2998 43.55 7.7998 42.95 6.5998 41.75C4.1998 39.35 4.1998 35.45 6.5998 33.05C8.9998 30.65 12.8998 30.65 15.2998 33.05C17.6998 35.45 17.6998 39.35 15.2998 41.75C14.0998 42.95 12.5998 43.55 10.9498 43.55Z" fill="#26A69A"/>
<path d="M34.3502 28.2499C32.8502 28.3999 30.7502 28.8499 29.2502 30.3499L28.9502 30.6499C27.4502 32.1499 25.3502 33.0499 23.2502 33.0499C21.1502 33.0499 19.2002 32.2999 17.5502 30.6499C14.4002 27.4999 14.4002 22.3999 17.5502 19.2499L17.8502 18.9499C19.2002 17.5999 19.9502 16.0999 19.9502 14.5999C19.9502 13.3999 20.1002 12.3499 20.5502 11.1499C15.9002 9.64993 11.5502 10.3999 8.85025 13.0999C6.45025 15.4999 5.55025 19.2499 6.60025 23.4499C7.50025 27.4999 9.90025 31.5499 13.3502 34.9999C18.0002 39.6499 23.5502 42.0499 28.2002 42.0499C31.0502 42.0499 33.4502 41.1499 35.2502 39.3499C37.9502 36.6499 38.5502 32.2999 37.2002 27.6499C36.1502 28.0999 35.2502 28.2499 34.3502 28.2499Z" fill="#26A69A"/>
</svg>
