<svg width="49" height="49" viewBox="0 0 49 49" fill="none" xmlns="http://www.w3.org/2000/svg">
<path d="M44.3603 16.12V25.5H36.2003C35.9603 25.48 35.4403 25.18 35.3203 24.96L33.2403 21.02C32.4203 19.46 31.0003 18.58 29.4803 18.66C27.9604 18.74 26.6603 19.76 26.0003 21.42L23.2403 28.34L22.8403 27.3C21.8603 24.76 19.0603 22.84 16.3004 22.84L4.36035 22.9V16.12C4.36035 8.84 8.70035 4.5 15.9804 4.5H32.7403C40.0203 4.5 44.3603 8.84 44.3603 16.12Z" fill="#26A69A"/>
<path d="M44.3603 32.8774V28.4974H36.2003C34.8603 28.4974 33.2803 27.5374 32.6603 26.3574L30.5803 22.4174C30.0203 21.3574 29.2203 21.4174 28.7803 22.5174L24.1803 34.1374C23.6803 35.4374 22.8403 35.4374 22.3203 34.1374L20.0403 28.3774C19.5003 26.9774 17.8203 25.8374 16.3204 25.8374L4.36035 25.8974V32.8774C4.36035 40.0374 8.56035 44.3574 15.6204 44.4774C15.8404 44.4974 16.0803 44.4974 16.3004 44.4974H32.3003C32.6003 44.4974 32.9003 44.4974 33.1803 44.4774C40.2003 44.3174 44.3603 40.0174 44.3603 32.8774Z" fill="#26A69A"/>
<path d="M4.36176 25.8982V32.5182C4.32176 31.8782 4.30176 31.1982 4.30176 30.4982V25.8982H4.36176Z" fill="#26A69A"/>
<path d="M21.4374 11.01C21.2189 10.267 20.1583 10.5983 19.6023 10.6602C19.2091 10.704 18.8256 10.885 18.772 10.5028C18.641 9.56809 18.6326 8.75041 17.8545 7.90761C17.3302 7.33978 16.7264 7.87971 16.937 8.30083C17.374 9.48052 17.2284 10.4418 15.4381 10.4418C13.6479 10.4418 13.5023 9.48052 13.9393 8.30083C14.1499 7.87971 13.5461 7.33978 13.0218 7.90761C12.2437 8.75041 12.2353 9.56809 12.1043 10.5028C12.0506 10.885 11.6673 10.704 11.274 10.6602C10.718 10.5983 9.65746 10.267 9.43896 11.01C9.23378 11.7076 10.0071 12.8886 11.7983 13.1507C12.0605 13.3256 11.9294 17.8695 15.4381 17.8695C18.9469 17.8695 18.8158 13.3256 19.078 13.1507C20.8693 12.8886 21.6426 11.7076 21.4374 11.01Z" fill="#26A69A"/>
<path d="M19.7517 12.9284C19.5638 12.2895 18.6518 12.5744 18.1737 12.6276C17.8356 12.6653 17.5059 12.8209 17.4598 12.4922C17.3471 11.6885 17.3399 10.9854 16.6708 10.2607C16.22 9.77243 15.7008 10.2367 15.8818 10.5988C16.2576 11.6132 16.1325 12.4398 14.593 12.4398C13.0536 12.4398 12.9285 11.6132 13.3042 10.5988C13.4853 10.2367 12.9661 9.77243 12.5153 10.2607C11.8462 10.9854 11.839 11.6885 11.7263 12.4922C11.6802 12.8209 11.3505 12.6653 11.0124 12.6276C10.5343 12.5744 9.62233 12.2895 9.43445 12.9284C9.25801 13.5282 9.92294 14.5437 11.4632 14.7691C11.6887 14.9195 11.5759 18.8267 14.593 18.8267C17.6102 18.8267 17.4974 14.9195 17.7229 14.7691C19.2632 14.5437 19.9281 13.5282 19.7517 12.9284Z" fill="white"/>
</svg>
