<svg width="48" height="49" viewBox="0 0 48 49" fill="none" xmlns="http://www.w3.org/2000/svg">
<path d="M31.8745 9.51212C31.8745 -0.843883 16.1245 -0.843883 16.1245 9.51212V29.0841C14.2675 31.0311 13.123 33.6756 13.123 36.5856C13.123 42.5916 17.992 47.4606 23.998 47.4606C30.004 47.4606 34.873 42.5916 34.873 36.5856C34.873 33.6756 33.73 31.0326 31.8685 29.0811L31.873 29.0856L31.8745 9.51212ZM23.9995 43.6251C20.065 43.6251 16.8745 40.4346 16.8745 36.5001C16.8745 34.3926 17.7895 32.4996 19.2445 31.1946L19.2505 31.1886C19.264 31.1766 19.27 31.1586 19.2835 31.1451C19.372 31.0506 19.4515 30.9456 19.519 30.8331L19.5235 30.8241C19.588 30.7446 19.6495 30.6546 19.702 30.5616L19.7065 30.5526C19.7365 30.4701 19.762 30.3696 19.78 30.2676L19.7815 30.2571C19.822 30.1356 19.852 29.9946 19.8655 29.8491V29.8416L19.876 29.7921V9.51212C19.8745 9.46562 19.873 9.41012 19.873 9.35462C19.873 7.07462 21.721 5.22662 24.001 5.22662C26.281 5.22662 28.129 7.07462 28.129 9.35462C28.129 9.41012 28.1275 9.46562 28.126 9.51962V9.51212V29.7921C28.126 29.8101 28.1365 29.8266 28.1365 29.8446C28.15 29.9916 28.1785 30.1266 28.2205 30.2556L28.2175 30.2421C28.237 30.3606 28.264 30.4656 28.3 30.5676L28.2955 30.5541C28.3525 30.6561 28.414 30.7446 28.48 30.8271L28.477 30.8241C28.549 30.9456 28.6285 31.0506 28.717 31.1466L28.7155 31.1451C28.729 31.1586 28.7335 31.1766 28.7485 31.1886C30.2095 32.4996 31.1245 34.3926 31.1245 36.5001C31.1245 40.4346 27.934 43.6251 23.9995 43.6251ZM25.8745 32.0016V20.7516C25.8745 19.7166 25.0345 18.8766 23.9995 18.8766C22.9645 18.8766 22.1245 19.7166 22.1245 20.7516V32.0016C20.3485 32.7561 19.1245 34.4856 19.1245 36.5016C19.1245 39.1941 21.307 41.3766 23.9995 41.3766C26.692 41.3766 28.8745 39.1941 28.8745 36.5016C28.8745 34.4856 27.6505 32.7561 25.906 32.0136L25.8745 32.0016ZM39.7495 3.12512C36.643 3.12512 34.1245 5.64362 34.1245 8.75012C34.1245 11.8566 36.643 14.3751 39.7495 14.3751C42.856 14.3751 45.3745 11.8566 45.3745 8.75012C45.3715 5.64512 42.8545 3.12812 39.7495 3.12512ZM39.7495 10.6251C38.7145 10.6251 37.8745 9.78512 37.8745 8.75012C37.8745 7.71512 38.7145 6.87512 39.7495 6.87512C40.7845 6.87512 41.6245 7.71512 41.6245 8.75012C41.623 9.78512 40.7845 10.6236 39.7495 10.6251Z" fill="#26A69A"/>
</svg>
