<svg width="40" height="49" viewBox="0 0 40 49" fill="none" xmlns="http://www.w3.org/2000/svg">
<path d="M8.26683 36.9138C-3.13431 36.1102 -2.28206 9.88445 11.3236 2.19159C13.2363 1.11017 15.1661 2.96889 14.8064 5.13644C13.3163 14.1168 14.8056 16.3549 15.7149 20.0862C16.7636 24.3897 20.7908 37.7966 8.26683 36.9138Z" fill="#26A69A"/>
<circle cx="10.7493" cy="44.3621" r="4.13793" fill="#26A69A"/>
<path d="M31.7341 36.9138C43.1353 36.1102 42.283 9.88445 28.6773 2.19159C26.7647 1.11017 24.8349 2.96889 25.1945 5.13644C26.6846 14.1168 25.1953 16.3549 24.2861 20.0862C23.2374 24.3897 19.2102 37.7966 31.7341 36.9138Z" fill="#26A69A"/>
<circle cx="4.13793" cy="4.13793" r="4.13793" transform="matrix(-1 0 0 1 33.3896 40.2241)" fill="#26A69A"/>
</svg>
