<svg width="48" height="49" viewBox="0 0 48 49" fill="none" xmlns="http://www.w3.org/2000/svg">
<path d="M18.0873 16.4583C18.0873 16.4583 16.466 22.898 19.413 29.3378C22.36 35.7776 21.6477 42.2174 21.6477 42.2174M29.3849 42.2174C29.3849 42.2174 30.3387 35.7776 27.347 30.7689C24.3554 25.7602 25.2101 20.7514 25.2101 20.7514M13.7127 42.2174C13.7127 42.2174 14.6663 35.7776 11.6747 30.7689C8.68306 25.7602 9.53784 20.7514 9.53784 20.7514" stroke="#26A69A" stroke-width="4" stroke-linecap="round" stroke-linejoin="round"/>
<path fill-rule="evenodd" clip-rule="evenodd" d="M32.993 7.12795C33.2572 6.32874 34.3393 6.29241 34.6778 7.01897L34.721 7.12795L37.499 15.5349L38.4573 12.6382C38.57 12.2972 38.8679 12.0572 39.2156 12.0164L39.3213 12.0102H40.232C40.735 12.0102 41.1427 12.4214 41.1427 12.9286C41.1427 13.3995 40.7911 13.7877 40.3382 13.8408L40.232 13.8469H39.977L38.3638 18.7292C38.0997 19.5284 37.0176 19.5647 36.679 18.8382L36.6359 18.7292L33.857 10.3213L31.9888 15.9741C31.7328 16.7488 30.695 16.8144 30.3271 16.1279L30.2793 16.0247L29.2679 13.4759L29.2034 13.5561C29.0585 13.7122 28.862 13.8144 28.6472 13.8404L28.5384 13.8469H27.482C26.979 13.8469 26.5713 13.4358 26.5713 12.9286C26.5713 12.4576 26.9229 12.0694 27.3758 12.0164L27.482 12.0102H27.9328L28.4638 10.7362C28.7642 10.015 29.7465 9.98898 30.1008 10.6469L30.149 10.7508L31.0465 13.0149L32.993 7.12795Z" fill="#26A69A"/>
</svg>
