<svg width="49" height="49" viewBox="0 0 49 49" fill="none" xmlns="http://www.w3.org/2000/svg">
<g clip-path="url(#clip0_63_4285)">
<path d="M24.2314 28.0869V18.2506C24.2314 18.0451 24.3052 17.8687 24.4527 17.7212C24.6001 17.5737 24.7819 17.5 24.9978 17.5H26.4673C26.6728 17.5 26.8466 17.5737 26.9888 17.7212C27.1363 17.8687 27.21 18.0451 27.21 18.2506V21.8059H32.6457V18.2506C32.6457 18.0451 32.7194 17.8687 32.8669 17.7212C33.0144 17.5737 33.1908 17.5 33.3962 17.5H34.8658C35.0817 17.5 35.2608 17.5737 35.403 17.7212C35.5505 17.8687 35.6242 18.0451 35.6242 18.2506V28.0869C35.6242 28.2923 35.5478 28.4688 35.3951 28.6163C35.2476 28.7585 35.0712 28.8296 34.8658 28.8296H33.3962C33.1908 28.8296 33.0144 28.7611 32.8669 28.6242C32.7194 28.4819 32.6457 28.3081 32.6457 28.1027V24.0418H27.21V28.1027C27.21 28.3081 27.1363 28.4819 26.9888 28.6242C26.8466 28.7611 26.6728 28.8296 26.4673 28.8296H24.9978C24.7924 28.8296 24.6133 28.7585 24.4606 28.6163C24.3078 28.4688 24.2314 28.2923 24.2314 28.0869Z" fill="#26A69A"/>
<path d="M13.3604 31.0103V20.6604C13.3604 20.5182 13.4051 20.4023 13.4947 20.3127C13.5895 20.2179 13.7053 20.1705 13.8423 20.1705H15.3671C15.5093 20.1705 15.6252 20.2179 15.7148 20.3127C15.8043 20.4023 15.8491 20.5182 15.8491 20.6604V20.8974C16.6813 20.3022 17.603 20.0073 18.6143 20.0125C19.7994 20.0125 20.7607 20.4023 21.498 21.1818C22.2407 21.9561 22.612 23.0595 22.612 24.4922C22.612 25.9459 22.2302 27.0599 21.4664 27.8342C20.7027 28.6032 19.673 28.9877 18.3773 28.9877C17.7084 28.9877 16.9473 28.8534 16.094 28.5848V31.0103C16.094 31.1525 16.0466 31.2684 15.9518 31.3579C15.8622 31.4527 15.749 31.5001 15.612 31.5001H13.8423C13.7001 31.5001 13.5842 31.4527 13.4947 31.3579C13.4051 31.2684 13.3604 31.1525 13.3604 31.0103ZM16.094 26.7597C16.7734 26.9757 17.3449 27.0836 17.8084 27.0836C18.53 27.0836 19.0409 26.8782 19.3412 26.4674C19.6467 26.0565 19.7994 25.3981 19.7994 24.4922C19.7994 23.5968 19.6546 22.9463 19.3649 22.5407C19.0804 22.1299 18.6169 21.9245 17.9743 21.9245C17.4792 21.9245 16.8525 22.1615 16.094 22.6355V26.7597Z" fill="#26A69A"/>
<circle cx="24.3604" cy="24.5" r="20.5" stroke="#26A69A" stroke-width="7"/>
</g>
<defs>
<clipPath id="clip0_63_4285">
<rect width="48" height="48" fill="white" transform="translate(0.360352 0.5)"/>
</clipPath>
</defs>
</svg>
