<svg width="49" height="49" viewBox="0 0 49 49" fill="none" xmlns="http://www.w3.org/2000/svg">
<g clip-path="url(#clip0_63_4278)">
<path d="M11.5212 30.1802C11.8999 30.813 12.571 31.1635 13.2578 31.1635C13.6113 31.1635 13.9696 31.0711 14.2967 30.8756L21.3367 26.6578C22.0857 27.1592 22.9856 27.4534 23.9556 27.4534C26.5635 27.4534 28.6789 25.3375 28.6789 22.7302C28.6789 20.1222 26.5636 18.0063 23.9556 18.0063C21.3477 18.0063 19.234 20.1222 19.234 22.7302C19.234 22.882 19.2653 23.0251 19.2797 23.1738L12.216 27.4057C11.2585 27.9798 10.9473 29.222 11.5212 30.1802Z" fill="#26A69A"/>
<path d="M28.4709 38.8168C27.0317 39.2219 25.5219 39.4534 23.956 39.4534C14.7351 39.4534 7.23354 31.9511 7.23354 22.7302C7.23354 13.5092 14.7351 6.00688 23.956 6.00688C33.177 6.00688 40.6784 13.5092 40.6784 22.7302C40.6784 23.2019 40.6457 23.665 40.6078 24.1265C41.514 24.3016 42.3586 24.7241 43.0535 25.3648C43.704 25.9678 44.5912 26.8564 45.536 27.9703C45.9444 26.287 46.1853 24.5379 46.1853 22.7302C46.1853 10.4726 36.2136 0.5 23.956 0.5C11.6985 0.5 1.72656 10.4726 1.72656 22.7302C1.72656 34.9877 11.6984 44.9603 23.956 44.9603C25.6081 44.9603 27.2132 44.7656 28.7636 44.4221C28.4538 43.3895 28.2834 42.2984 28.2834 41.1674C28.2834 40.3633 28.3569 39.5817 28.4709 38.8168Z" fill="#26A69A"/>
<path d="M40.3022 28.3318C40.1208 28.1636 39.8894 28.0791 39.6577 28.0791C39.4293 28.0791 39.1995 28.162 39.0178 28.3286C37.2297 29.9714 32.3281 35.0339 32.3281 41.1675C32.3281 45.2169 35.6103 48.5001 39.6608 48.5001C43.7097 48.5001 46.9937 45.2169 46.9937 41.1675C46.9937 35.0832 42.0875 29.9861 40.3022 28.3318Z" fill="#26A69A"/>
</g>
<defs>
<clipPath id="clip0_63_4278">
<rect width="48" height="48" fill="white" transform="translate(0.360352 0.5)"/>
</clipPath>
</defs>
</svg>
