<svg width="65" height="65" viewBox="0 0 65 65" fill="none" xmlns="http://www.w3.org/2000/svg">
<path d="M64.9909 32.3581C65.4519 50.5109 48.7158 66.449 30.3457 64.8946C6.93474 63.6587 -7.34883 37.0417 3.92969 16.9459C20.1428 -12.6017 64.7014 -0.993589 64.9909 32.3581ZM32.4762 62.5251C32.4791 62.5806 32.4821 62.639 32.488 62.6945C54.4748 62.4579 69.0568 39.382 59.7786 19.7362C49.8091 -2.3259 17.9326 -3.70496 6.2965 17.653C-4.96134 37.1001 9.51429 62.8815 32.4762 62.528V62.5251Z" fill="#126D76"/>
<path d="M25.1128 44.2847C27.4146 45.0911 29.353 46.2627 31.2854 47.671C30.0858 47.7937 29.0427 47.7002 28.0411 47.1422C29.0664 48.5446 29.1816 50.5606 31.0786 51.3962C32.624 43.2475 38.6813 37.0972 40.9772 29.2085C42.0498 40.0189 46.4998 46.5227 58.3663 44.0013C58.3102 47.7411 55.8991 51.6299 52.5778 53.5875C51.8776 51.0368 50.7961 48.6264 49.3364 46.4C49.2862 46.4263 49.233 46.4526 49.1828 46.476C50.6247 51.9747 47.9417 54.3355 44.9603 58.3353C44.8362 59.1885 44.1862 59.5099 43.5125 59.8284C38.38 62.2914 32.2517 62.8816 26.8089 61.2542C28.2095 58.2009 25.3788 55.1302 26.1027 51.89C26.6316 47.6388 28.5493 48.2553 25.1069 44.2818L25.1128 44.2847Z" fill="#126D76"/>
<path d="M39.396 29.3313C39.7122 27.9172 40.0254 26.5002 40.3386 25.0977C44.5906 25.8165 44.6556 21.2001 49.076 22.0445C56.3891 23.5025 51.3364 27.5257 47.9709 30.1816C44.5403 32.4605 43.0216 26.1116 39.5496 29.3722C39.4994 29.3576 39.4462 29.3459 39.396 29.3313Z" fill="#126D76"/>
<path d="M45.9763 8.61299C51.0586 13.2118 51.3866 17.8661 45.3204 21.7491C44.3305 22.3101 43.9434 24.0281 42.5931 23.7447C40.3533 23.2831 39.0148 21.0684 38.9971 18.8683C53.5791 17.0773 48.0595 10.8218 40.0224 4.37646C40.0667 4.3151 40.114 4.25667 40.1583 4.19531C46.8273 7.28652 57.6272 16.0254 47.1287 21.6556C52.6749 16.9458 51.3984 12.6625 46.0384 8.52826C46.0177 8.55747 45.997 8.58669 45.9763 8.61591V8.61299Z" fill="#126D76"/>
<path d="M38.6514 18.2665C36.2698 17.4981 33.5395 16.5748 31.2082 17.8896C25.8482 19.9173 20.2961 16.1102 16.1534 13.0278C18.08 16.718 21.7646 18.5674 25.3252 20.4052C25.6945 19.7712 26.052 19.1547 26.4125 18.5411C26.4716 18.5703 26.5337 18.5996 26.5928 18.6288C26.4598 20.2766 26.5248 21.9829 25.0179 23.2422C23.9246 21.8719 22.2374 21.3606 20.8338 20.4286C17.551 18.1759 15.3024 14.7925 14.936 10.8599C18.2691 15.2688 23.6705 17.2234 29.0275 17.7669C32.2335 16.5047 35.8059 15.5054 38.6543 18.2665H38.6514Z" fill="#126D76"/>
<path d="M16.4727 39.4435C17.5305 41.144 19.1999 39.9987 18.6415 38.3304C19.4452 38.4589 20.2164 38.5845 20.9817 38.7073C20.9285 40.1097 21.5165 40.3464 22.7162 40.7788C23.1771 40.2529 24.0133 39.911 24.034 39.1514C24.0015 38.231 23.6233 37.074 22.4768 37.5356C21.1915 37.8044 20.0303 37.1061 18.807 36.8227C20.1041 36.2822 21.2654 37.4538 22.5478 36.9542C23.1446 36.7176 23.6529 36.9396 24.0665 37.4509C24.5748 38.0762 24.5659 38.8504 24.7048 39.5809C24.6811 39.8818 24.3 40.1068 24.1522 40.358C23.4312 41.5238 23.4726 41.5823 24.5748 42.0527C26.7938 43.5223 28.289 40.7525 29.6482 39.4786C29.6925 39.5166 29.7368 39.5516 29.7811 39.5896C29.4532 40.3055 29.1252 41.0184 28.7972 41.7342C29.6068 42.1023 32.4612 41.7663 35.2239 40.4515C35.2505 40.4924 35.2771 40.5334 35.3037 40.5772C33.4599 41.9212 31.1935 42.599 28.9183 41.9942C27.633 42.225 26.7081 43.5077 25.2012 43.1688C23.5524 43.1483 23.9188 44.9861 21.5874 44.4251C20.0953 44.3375 19.6048 42.6166 18.1392 42.3565C16.7504 42.0205 16.5643 40.7174 16.4727 39.4494V39.4435Z" fill="#126D76"/>
<path d="M24.3238 23.8264C23.7505 24.4604 22.8464 25.2055 22.542 26.0966C20.846 30.0497 17.4863 25.9973 15.9616 24.0777C13.9671 21.2524 20.6037 20.2385 21.9717 21.7841C22.7134 22.5146 23.4816 23.1164 24.3238 23.8264Z" fill="#126D76"/>
<path d="M33.605 29.606C35.8004 28.5484 35.9393 27.3475 38.2145 29.3372C38.1879 29.3723 38.1613 29.4074 38.1376 29.4453C37.5319 29.3139 37.0503 29.1532 36.8759 29.9304C35.9245 31.2597 33.082 28.7091 29.7607 32.9573C31.0638 22.9036 35.8624 26.6492 38.7759 21.916C39.29 24.008 39.092 25.913 38.5129 27.8384C36.4652 26.0123 34.0718 27.4586 33.6079 29.606H33.605ZM36.4711 29.7872C37 29.3343 37.0178 29.0597 36.5125 28.7996C35.9127 28.937 36.0397 29.3051 36.4711 29.7872Z" fill="#126D76"/>
<path d="M22.9259 31.6629C22.9259 30.7484 22.8964 29.942 22.9378 29.1386C23.0087 28.265 22.2788 28.6126 21.6436 28.5454C22.072 28.1627 22.6334 27.9552 22.8018 27.4732C22.3823 25.6909 26.8765 20.9986 26.8174 24.9897C24.5156 23.8677 25.3666 30.43 22.9289 31.6629H22.9259Z" fill="#126D76"/>
<path d="M37.8921 30.5522C38.0664 30.6837 38.2112 30.7918 38.353 30.8999C37.4193 34.8268 32.3311 32.1066 34.0479 31.1278C35.0791 32.466 36.1753 32.3111 37.8921 30.5522Z" fill="#126D76"/>
<path d="M23.2573 31.9402C22.2556 33.1761 21.118 34.3185 20.1429 35.569C19.5431 36.3783 18.8369 35.9021 17.9209 35.8553C19.744 34.4646 21.4578 33.1556 23.1716 31.8467C23.2012 31.8788 23.2277 31.908 23.2573 31.9402Z" fill="#126D76"/>
<path d="M23.7385 38.8563C23.7474 39.537 23.6174 39.7328 22.8846 39.9665C22.3231 40.2879 20.8221 39.5137 21.6879 38.9585C22.1665 38.7189 22.6009 38.4531 22.7486 37.8804C23.3307 37.486 23.576 38.4151 23.8744 38.7686C23.8301 38.7978 23.7828 38.8271 23.7385 38.8563Z" fill="#126D76"/>
<path d="M17.6013 37.2842C17.8997 38.0205 18.8068 38.7421 18.145 39.4989C17.1521 39.6566 16.8833 37.9182 17.6013 37.2842Z" fill="#126D76"/>
</svg>
