<svg width="73" height="72" viewBox="0 0 73 72" fill="none" xmlns="http://www.w3.org/2000/svg">
<path d="M52.25 63C49.775 63 47.525 61.425 46.625 58.95C46.625 58.725 46.625 58.5 46.4 58.5H26.375C26.375 58.725 26.375 58.95 26.15 58.95C25.475 61.425 23.225 63 20.75 63C19.4 63 18.5 63.9 18.5 65.25C18.5 66.6 19.4 67.5 20.75 67.5H52.25C53.6 67.5 54.5 66.6 54.5 65.25C54.5 63.9 53.6 63 52.25 63Z" fill="#61AE73"/>
<path d="M61.25 6.75H11.75C7.925 6.75 5 9.675 5 13.5V47.25C5 51.075 7.925 54 11.75 54H27.275H45.5H61.25C65.075 54 68 51.075 68 47.25V13.5C68 9.675 65.075 6.75 61.25 6.75ZM56.75 33.75H45.5C44.825 33.75 44.15 33.3 43.7 32.85L41.675 29.7L38.75 36.9C38.3 37.575 37.4 38.25 36.5 38.25C35.6 38.25 34.925 37.8 34.475 36.9L31.325 30.6L29.075 32.85C28.625 33.525 28.175 33.75 27.5 33.75H16.25C14.9 33.75 14 32.85 14 31.5C14 30.15 14.9 29.25 16.25 29.25H26.6L30.425 25.425C30.875 24.975 31.775 24.75 32.45 24.75C33.125 24.975 33.8 25.425 34.025 25.875L36.275 30.375L38.975 23.85C39.2 23.175 40.1 22.5 40.775 22.5C41.675 22.5 42.35 22.725 42.8 23.4L46.625 29.25H56.75C58.1 29.25 59 30.15 59 31.5C59 32.85 58.1 33.75 56.75 33.75Z" fill="#61AE73"/>
</svg>
