<svg width="73" height="72" viewBox="0 0 73 72" fill="none" xmlns="http://www.w3.org/2000/svg">
<g clip-path="url(#clip0_63_2244)">
<path d="M10.8137 43.706C12.3549 43.706 13.3823 42.6785 13.3823 41.1373V15.4512H59.6174V41.1373C59.6174 42.6785 60.6449 43.706 62.186 43.706C63.7272 43.706 64.7547 42.6785 64.7547 41.1373V12.8826C64.7547 11.3414 63.7272 10.314 62.186 10.314H10.8137C9.27256 10.314 8.24512 11.3414 8.24512 12.8826V41.1373C8.24512 42.6785 9.27256 43.706 10.8137 43.706Z" fill="#26A69A"/>
<path d="M72.2031 58.0903L67.0659 47.8158C66.5522 46.7884 65.7816 46.2747 64.7542 46.2747H8.24461C7.21716 46.2747 6.44658 46.7884 5.93285 47.8158L0.795622 58.0903C0.281899 58.8609 0.53876 59.8883 0.795622 60.6589C1.05248 61.4295 2.33679 61.6863 3.10738 61.6863H69.8914C70.662 61.6863 71.6894 61.1726 72.2031 60.402C72.7169 59.6315 72.46 58.8609 72.2031 58.0903Z" fill="#26A69A"/>
<path d="M36.5 41.1373C38.0412 41.1373 39.0687 40.1099 39.0687 38.5687V33.4315H44.2059C45.7471 33.4315 46.7745 32.404 46.7745 30.8628C46.7745 29.3217 45.7471 28.2942 44.2059 28.2942H39.0687V23.157C39.0687 21.6158 38.0412 20.5884 36.5 20.5884C34.9589 20.5884 33.9314 21.6158 33.9314 23.157V28.2942H28.7942C27.253 28.2942 26.2256 29.3217 26.2256 30.8628C26.2256 32.404 27.253 33.4315 28.7942 33.4315H33.9314V38.5687C33.9314 40.1099 34.9589 41.1373 36.5 41.1373Z" fill="#26A69A"/>
</g>
<defs>
<clipPath id="clip0_63_2244">
<rect width="72" height="72" fill="white" transform="translate(0.5)"/>
</clipPath>
</defs>
</svg>
