<svg width="73" height="72" viewBox="0 0 73 72" fill="none" xmlns="http://www.w3.org/2000/svg">
<path d="M60.0714 18.6667H41L36.0714 11.0833C35.8571 10.4333 35 10 34.3571 10H12.9286C9.28571 10 6.5 12.8167 6.5 16.5V55.5C6.5 59.1833 9.28571 62 12.9286 62H60.0714C63.7143 62 66.5 59.1833 66.5 55.5V25.1667C66.5 21.4833 63.7143 18.6667 60.0714 18.6667ZM25.7857 42.5H17.2143C15.9286 42.5 15.0714 41.6333 15.0714 40.3333C15.0714 39.0333 15.9286 38.1667 17.2143 38.1667H25.7857C27.0714 38.1667 27.9286 39.0333 27.9286 40.3333C27.9286 41.6333 27.0714 42.5 25.7857 42.5ZM32.2143 33.8333H17.2143C15.9286 33.8333 15.0714 32.9667 15.0714 31.6667C15.0714 30.3667 15.9286 29.5 17.2143 29.5H32.2143C33.5 29.5 34.3571 30.3667 34.3571 31.6667C34.3571 32.9667 33.5 33.8333 32.2143 33.8333ZM62.2143 52.4667L43.7857 23H60.0714C61.3571 23 62.2143 23.8667 62.2143 25.1667V52.4667Z" fill="#26A69A"/>
</svg>
