<svg width="72" height="72" viewBox="0 0 72 72" fill="none" xmlns="http://www.w3.org/2000/svg">
<path d="M56.25 9C49.95 9 45 13.95 45 20.25C45 25.65 48.825 30.15 54 31.275V48.375C54 56.475 47.475 63 39.375 63C31.275 63 24.75 56.475 24.75 48.375V47.025C33.525 45.9 40.5 38.25 40.5 29.25V11.25C40.5 8.775 38.475 6.75 36 6.75H33.75C32.4 6.75 31.5 5.85 31.5 4.5C31.5 3.15 30.6 2.25 29.25 2.25C27.9 2.25 27 3.15 27 4.5C27 8.325 29.925 11.25 33.75 11.25H36V29.25C36 36.675 29.925 42.75 22.5 42.75C15.075 42.75 9 36.675 9 29.25V11.25H11.25C15.075 11.25 18 8.325 18 4.5C18 3.15 17.1 2.25 15.75 2.25C14.4 2.25 13.5 3.15 13.5 4.5C13.5 5.85 12.6 6.75 11.25 6.75H9C6.525 6.75 4.5 8.775 4.5 11.25V29.25C4.5 38.475 11.475 45.9 20.25 47.025V48.375C20.25 58.95 28.8 67.5 39.375 67.5C49.95 67.5 58.5 58.95 58.5 48.375V31.275C63.675 30.15 67.5 25.65 67.5 20.25C67.5 13.95 62.55 9 56.25 9ZM57.825 21.825C57.375 22.275 56.925 22.5 56.25 22.5C56.025 22.5 55.575 22.5 55.35 22.275C55.125 22.05 54.9 22.05 54.675 21.825C54.225 21.375 54 20.925 54 20.25C54 19.575 54.225 19.125 54.675 18.675C54.9 18.45 55.125 18.225 55.35 18.225C56.25 17.775 57.15 18 57.825 18.675C58.275 19.125 58.5 19.575 58.5 20.25C58.5 20.925 58.275 21.375 57.825 21.825Z" fill="#61AE73"/>
</svg>
