<svg width="73" height="72" viewBox="0 0 73 72" fill="none" xmlns="http://www.w3.org/2000/svg">
<path d="M65.2925 39.1877C64.8782 38.5662 64.2567 38.1519 63.428 38.1519C58.8701 38.1519 54.5195 40.2236 51.8262 43.9527L49.9616 46.4388C47.6827 49.1321 44.1607 50.5823 40.6388 50.5823H34.4235C33.1805 50.5823 32.3518 49.7536 32.3518 48.5106C32.3518 47.2675 33.1805 46.4388 34.4235 46.4388H38.3598C41.6746 46.4388 44.7822 43.7456 44.7822 40.4308V40.2236C44.7822 39.1877 43.7464 38.1519 42.7105 38.1519H30.0728C22.6146 38.1519 16.6065 41.4667 13.2917 46.8532L7.69797 55.5545C7.28362 56.1761 7.28362 57.0048 7.69797 57.6263L13.9132 67.985C14.1204 68.3994 14.7419 68.8137 15.1563 69.0209C15.3634 69.0209 15.3634 69.0209 15.5706 69.0209C15.985 69.0209 16.3993 68.8137 16.8137 68.6066C24.6863 63.4272 33.802 60.7339 43.1249 60.7339C49.9616 60.7339 56.1769 57.0048 59.4917 50.9967L65.0854 41.0523C65.4997 40.638 65.4997 39.8093 65.2925 39.1877Z" fill="#26A69A"/>
<path d="M30.073 34.0084H42.7106C46.0254 34.0084 48.9259 36.7016 48.9259 40.0164V40.4308L61.7707 27.1716C66.7429 21.9922 66.7429 13.9124 61.7707 8.73305C59.2846 6.45413 56.177 5.00391 52.8622 5.00391C49.5474 5.00391 46.2326 6.45413 43.7465 8.94023L42.7106 9.9761L41.6747 8.94023C39.1886 6.45413 36.081 5.00391 32.559 5.00391C29.2443 5.00391 26.1366 6.45413 23.6505 8.94023C18.6783 14.1196 18.6783 22.1994 23.6505 27.3788L30.073 34.0084ZM32.3519 21.5779H35.6667L39.1886 18.0559C39.603 17.6416 40.2245 17.4344 41.0532 17.4344C41.6747 17.6416 42.2963 18.0559 42.5034 18.4703L44.5752 22.6138L47.0613 16.6057C47.2685 15.9842 47.89 15.3626 48.7187 15.3626C49.5474 15.3626 50.1689 15.5698 50.5833 16.1913L54.7267 22.4066C55.3483 23.4425 55.1411 24.6855 54.1052 25.307C53.0694 25.9286 51.8263 25.7214 51.2048 24.6855L49.3402 21.7851L46.6469 28.4147C46.4398 29.2434 45.6111 29.8649 44.7824 29.8649C43.9537 29.8649 43.3321 29.4505 42.9178 28.6218L40.0173 22.8209L37.9456 24.8927C37.5312 25.5142 37.1169 25.7214 36.4954 25.7214H32.3519C31.1088 25.7214 30.2801 24.8927 30.2801 23.6496C30.2801 22.4066 31.1088 21.5779 32.3519 21.5779Z" fill="#26A69A"/>
</svg>
