<svg width="194" height="193" viewBox="0 0 194 193" fill="none" xmlns="http://www.w3.org/2000/svg">
<path d="M192.134 143.202C192.134 143.202 191.002 126.092 191.002 118.11C191.002 110.977 188.284 103.631 184.068 101.332C178.483 89.049 158.665 89.6704 150.434 89.6704C140.803 89.6704 119.579 89.088 110.234 89.088C100.888 89.088 80.4797 86.3883 69.7192 83.2542C58.956 80.1167 52.0166 74.2738 50.6024 75.9815C49.1878 77.6945 46.3533 79.6915 42.3893 79.1186C50.6023 75.9815 50.0359 67.1462 48.9038 66.0061C47.7709 64.8656 43.2375 64.5793 38.9914 69.7104C41.5385 64.8629 36.723 58.3082 34.1763 56.8814C31.6262 55.4547 29.0791 56.0245 31.0598 57.4513C33.0434 58.8784 34.1763 65.1496 31.3445 67.7168C31.3445 67.7168 22.565 73.1315 20.8665 74.2746C19.1675 75.4151 8.40401 89.3841 6.42072 90.5246C4.44005 91.6644 0.757812 93.6583 0.757812 94.8018C0.757812 95.9423 5.00649 104.636 7.27188 104.636C9.53727 104.636 27.2369 106.774 38.2817 107.631C38.2817 107.631 45.3652 119.187 48.9042 129.44C50.8186 134.994 52.8681 146.653 55.4182 151.244C60.7968 160.936 67.8803 169.204 67.8803 174.335C67.8803 179.469 67.8803 190.871 67.8803 190.871L64.7641 196.289C64.7641 196.289 67.0295 197.716 71.2782 197.716C75.5273 197.716 76.0907 194.579 76.0907 193.152C76.0907 191.728 76.0907 171.771 76.0907 171.771C76.0907 171.771 74.9582 166.353 74.9582 162.93C74.9582 159.509 79.4916 141.262 79.7733 138.698C79.7733 138.698 80.3397 144.969 80.3397 146.68C80.3397 146.68 93.5417 151.286 100.308 151.965C111.634 153.105 119.566 155.388 135.992 153.675C149.278 152.293 159.798 144.399 159.798 144.399C159.798 144.399 158.662 138.982 160.08 136.131C162.345 152.098 175.374 163.217 175.374 164.07C175.374 164.927 173.375 190.597 173.375 190.597L170.825 196.585C170.825 196.585 171.691 198 175.94 198C180.189 198 181.603 195.433 181.603 192.299C181.603 189.162 187.267 162.36 187.551 160.366C187.836 158.369 185.852 144.113 185.286 142.689C184.842 141.57 185.268 123.039 185.475 113.758C187.923 122.044 188.214 135.627 187.605 139.778C186.332 148.471 189.87 156.884 189.87 156.884C189.87 156.884 191.003 159.735 192.702 153.464C194.4 147.193 192.134 143.202 192.134 143.202Z" fill="#61AE73"/>
<path fill-rule="evenodd" clip-rule="evenodd" d="M99.7276 130.552C96.998 129.82 95.3781 127.014 96.1095 124.285C96.8409 121.555 99.6466 119.935 102.376 120.667L124.362 126.558C127.092 127.289 128.711 130.095 127.98 132.825C127.249 135.554 124.443 137.174 121.713 136.443L99.7276 130.552ZM99.1535 128.23C98.8239 128.141 98.6282 127.802 98.7166 127.473L98.8902 126.825C98.9785 126.495 99.3173 126.3 99.6469 126.388L101.352 126.845C101.861 126.981 102.163 127.504 102.026 128.012C101.89 128.521 101.367 128.823 100.859 128.687L99.1535 128.23ZM99.9509 122.868C99.8626 123.198 100.058 123.537 100.388 123.625L102.093 124.082C102.602 124.218 103.124 123.916 103.261 123.408C103.397 122.899 103.095 122.377 102.587 122.24L100.881 121.783C100.552 121.695 100.213 121.891 100.125 122.22L99.9509 122.868Z" fill="#D6FFDF"/>
<path fill-rule="evenodd" clip-rule="evenodd" d="M115.065 115.85C116.709 116.291 118.085 117.32 118.885 118.856C119.186 119.377 119.021 119.994 118.499 120.295C118.239 120.445 117.903 120.465 117.698 120.41C117.433 120.339 117.265 120.213 117.127 120.015L117.061 119.909C115.933 117.955 113.364 117.266 111.41 118.395C110.888 118.696 110.272 118.53 109.971 118.009C109.693 117.528 109.813 116.966 110.243 116.646L110.356 116.571C111.714 115.613 113.421 115.41 115.065 115.85ZM116.166 111.74C118.838 112.456 121.131 114.172 122.458 116.62C122.759 117.141 122.593 117.757 122.072 118.058C121.812 118.209 121.579 118.256 121.27 118.174C121.006 118.103 120.838 117.977 120.7 117.778L120.634 117.673C119.505 115.718 117.773 114.373 115.616 113.795C113.458 113.217 111.285 113.516 109.331 114.644C108.81 114.945 108.193 114.78 107.892 114.259C107.591 113.737 107.757 113.121 108.278 112.82C110.65 111.363 113.495 111.024 116.166 111.74ZM117.267 107.63C121.069 108.649 124.15 111.126 126.106 114.513C126.407 115.035 126.241 115.651 125.72 115.952C125.46 116.102 125.227 116.15 124.918 116.067C124.61 115.985 124.432 115.827 124.282 115.566C122.654 112.597 119.902 110.538 116.717 109.685C113.531 108.831 110.119 109.238 107.225 110.996C106.704 111.297 106.087 111.132 105.786 110.611C105.485 110.089 105.65 109.473 106.172 109.172C109.559 107.216 113.466 106.611 117.267 107.63Z" fill="#D6FFDF"/>
<path d="M157.32 10.6847C156.611 11.8836 156.638 13.5133 158.084 14.2124C159.876 15.0786 160.919 13.546 161.773 12.2897C162.509 11.2083 163.336 10.1901 164.284 9.27388C166.364 7.26218 169.309 5.41961 173.142 5.41961C176.975 5.41961 179.919 7.26218 182 9.27388C182.943 10.1857 183.767 11.1984 184.5 12.2741C185.354 13.5279 186.41 15.0774 188.2 14.2124C189.639 13.5167 189.669 11.8778 188.964 10.6847C188.794 10.3979 188.548 10.0006 188.223 9.52944C187.575 8.59099 186.605 7.33894 185.303 6.08089C182.713 3.57703 178.651 0.904053 173.142 0.904053C167.633 0.904053 163.571 3.57703 160.981 6.08089C159.679 7.33894 158.708 8.59099 158.061 9.52944C157.736 10.0006 157.489 10.3979 157.32 10.6847Z" fill="#61AE73"/>
<path d="M169.678 13.9683C169.225 14.4554 168.874 14.9495 168.637 15.3214C167.845 16.5678 166.77 17.7552 165.254 16.8718C163.997 16.1398 163.806 14.4261 164.489 13.1866C164.587 13.0102 164.725 12.7707 164.904 12.4891C165.259 11.93 165.789 11.1826 166.491 10.4283C167.871 8.94555 170.116 7.68481 173.141 7.68481C176.166 7.68481 178.411 8.94553 179.791 10.4282C180.493 11.1825 181.023 11.9299 181.378 12.489C181.557 12.7706 181.695 13.0101 181.793 13.1865C182.478 14.4286 182.28 16.1424 181.028 16.8717C179.512 17.7555 178.437 16.568 177.645 15.3215C177.408 14.9495 177.057 14.4555 176.604 13.9684C175.673 12.9683 174.509 12.1983 173.141 12.1983C171.772 12.1983 170.609 12.9683 169.678 13.9683Z" fill="#61AE73"/>
<path fill-rule="evenodd" clip-rule="evenodd" d="M171.003 16.7844C171.003 15.5039 172.034 14.4658 173.305 14.4658C174.576 14.4658 175.606 15.5039 175.606 16.7844V33.0143H182.51C186.323 33.0143 189.414 36.1283 189.414 39.9699V49.0992C189.414 52.9408 186.323 56.0549 182.51 56.0549H145.688C141.875 56.0549 138.784 52.9408 138.784 49.0992V39.9699C138.784 36.1283 141.875 33.0143 145.688 33.0143H171.003V16.7844ZM182.51 37.6514C183.781 37.6514 184.812 38.6894 184.812 39.9699V49.0992C184.812 50.3797 183.781 51.4178 182.51 51.4178H145.688C144.417 51.4178 143.387 50.3797 143.387 49.0992V39.9699C143.387 38.6894 144.417 37.6514 145.688 37.6514H182.51Z" fill="#61AE73"/>
<path d="M182.51 37.6514C183.781 37.6514 184.812 38.6894 184.812 39.9699V49.0992C184.812 50.3797 183.781 51.4178 182.51 51.4178H145.688C144.417 51.4178 143.387 50.3797 143.387 49.0992V39.9699C143.387 38.6894 144.417 37.6514 145.688 37.6514H182.51Z" fill="#61AE73"/>
<path d="M150.538 41.5891C149.04 41.5891 147.825 42.8034 147.825 44.3014C147.825 45.7995 149.04 47.0138 150.538 47.0138C152.035 47.0138 153.25 45.7995 153.25 44.3014C153.25 42.8034 152.035 41.5891 150.538 41.5891Z" fill="#D6FFDF"/>
<path d="M157.771 41.5891C156.273 41.5891 155.059 42.8034 155.059 44.3014C155.059 45.7995 156.273 47.0138 157.771 47.0138C159.269 47.0138 160.483 45.7995 160.483 44.3014C160.483 42.8034 159.269 41.5891 157.771 41.5891Z" fill="#D6FFDF"/>
<path d="M165.908 41.5891C164.41 41.5891 163.195 42.8034 163.195 44.3014C163.195 45.7995 164.41 47.0138 165.908 47.0138C167.406 47.0138 168.62 45.7995 168.62 44.3014C168.62 42.8034 167.406 41.5891 165.908 41.5891Z" fill="#D6FFDF"/>
</svg>
