<svg width="152" height="100" viewBox="0 0 152 100" fill="none" xmlns="http://www.w3.org/2000/svg">
<path d="M142.211 0.149658H10.321C4.73561 0.149658 0 4.51224 0 9.87481V100.018C0 105.392 4.64119 109.601 10.321 109.601H142.211C147.808 109.601 152 105.392 152 100.018V9.87481C152 4.42158 147.808 0.149658 142.211 0.149658ZM34.6756 5.69133C36.7219 5.69133 38.3858 7.28944 38.3858 9.25348C38.3858 11.2175 36.7213 12.8156 34.6756 12.8156C32.63 12.8156 30.9654 11.2175 30.9654 9.25348C30.9654 7.28944 32.6294 5.69133 34.6756 5.69133ZM24.0241 5.69133C26.0703 5.69133 27.7343 7.28944 27.7343 9.25348C27.7343 11.2175 26.0698 12.8156 24.0241 12.8156C21.9784 12.8156 20.3139 11.2175 20.3139 9.25348C20.3139 7.28944 21.9779 5.69133 24.0241 5.69133ZM13.3726 5.69133C15.4188 5.69133 17.0828 7.28944 17.0828 9.25348C17.0828 11.2175 15.4182 12.8156 13.3726 12.8156C11.3269 12.8156 9.66238 11.2175 9.66238 9.25348C9.66238 7.28944 11.3263 5.69133 13.3726 5.69133ZM139.27 12.8637H98.9666C96.9203 12.8637 95.2564 11.2551 95.2564 9.27781C95.2564 7.30049 96.9209 5.69189 98.9666 5.69189L139.27 5.70405C141.316 5.70405 142.98 7.30713 142.98 9.27836C142.98 11.2551 141.315 12.8637 139.27 12.8637Z" fill="#26A69A"/>
<path d="M88.3579 85.5949C87.1863 85.5949 86.063 85.1377 85.2477 84.3246L62.99 62.1297L54.303 69.6006C52.5268 71.129 49.7971 70.9842 48.2051 69.2783C46.6137 67.573 46.7646 64.9517 48.5408 63.4238L60.33 53.2851C62.0613 51.7976 64.7104 51.891 66.3214 53.4979L88.138 75.2528L123.3 35.0338C124.834 33.2804 127.557 33.0526 129.384 34.5241C131.21 35.9962 131.448 38.6114 129.914 40.3649L91.6651 84.1151C90.878 85.0156 89.7294 85.5529 88.5053 85.5932C88.4558 85.5943 88.4069 85.5949 88.3579 85.5949Z" fill="#CDFDF8"/>
<path d="M33.7144 41.8451H25.7752C23.3899 41.8451 21.457 39.9894 21.457 37.6992C21.457 35.4096 23.3899 33.5533 25.7752 33.5533H33.7144C36.0997 33.5533 38.0325 35.4096 38.0325 37.6992C38.0325 39.9889 36.0991 41.8451 33.7144 41.8451Z" fill="#CDFDF8"/>
<path d="M33.7144 71.0114H25.7752C23.3899 71.0114 21.457 69.1557 21.457 66.8655C21.457 64.5753 23.3899 62.7196 25.7752 62.7196H33.7144C36.0997 62.7196 38.0325 64.5753 38.0325 66.8655C38.0325 69.1557 36.0991 71.0114 33.7144 71.0114Z" fill="#CDFDF8"/>
<path d="M33.7144 56.4287H25.7752C23.3899 56.4287 21.457 54.573 21.457 52.2829C21.457 49.9927 23.3899 48.137 25.7752 48.137H33.7144C36.0997 48.137 38.0325 49.9927 38.0325 52.2829C38.0325 54.5725 36.0991 56.4287 33.7144 56.4287Z" fill="#CDFDF8"/>
<path d="M33.7144 85.5948H25.7752C23.3899 85.5948 21.457 83.7391 21.457 81.4489C21.457 79.1587 23.3899 77.303 25.7752 77.303H33.7144C36.0997 77.303 38.0325 79.1587 38.0325 81.4489C38.0325 83.7391 36.0991 85.5948 33.7144 85.5948Z" fill="#CDFDF8"/>
</svg>
