<svg width="174" height="139" viewBox="0 0 174 139" fill="none" xmlns="http://www.w3.org/2000/svg">
<g clip-path="url(#clip0_63_2326)">
<path d="M50.681 86.1869V84.5458C50.681 82.6823 49.1891 81.1723 47.3531 81.1723H41.8912C42.3462 80.3388 42.6049 79.3064 42.6049 78.2576C42.6025 74.8092 39.8358 71.9999 36.4363 71.9999C33.0368 71.9999 30.2724 74.8092 30.2724 78.2576C30.2724 79.3064 30.531 80.3388 30.986 81.1723H26.5056C24.6673 81.1723 23.1777 82.6823 23.1777 84.5458V86.1869H15.7551C12.9676 86.1869 10.709 88.4788 10.709 91.3045V141.746C10.709 144.571 12.9676 146.866 15.7551 146.866H58.0967C60.8842 146.866 63.1451 144.574 63.1451 141.746V91.3045C63.1451 88.4788 60.8842 86.1869 58.0967 86.1869H50.681ZM32.7643 78.26C32.7643 76.2045 34.4109 74.5283 36.434 74.5283C38.4617 74.5283 40.1083 76.2045 40.1083 78.26C40.1083 79.4352 39.5679 80.4442 38.7227 81.1746H34.1476C33.3047 80.4418 32.7643 79.4352 32.7643 78.26ZM58.0967 138.702C58.0967 140.439 56.7064 141.849 54.9928 141.849H18.859C17.1454 141.849 15.7551 140.439 15.7551 138.702V94.4509C15.7551 92.7115 17.1454 91.3045 18.859 91.3045H23.1731C23.1731 92.6881 24.2793 93.8118 25.6442 93.8118H48.2053C49.5725 93.8118 50.6764 92.6904 50.6764 91.3045H54.9928C56.7041 91.3045 58.0967 92.7138 58.0967 94.4509V138.702Z" fill="#26B1CE"/>
<path d="M25.0624 107.109C27.4845 107.109 29.4481 105.119 29.4481 102.663C29.4481 100.208 27.4845 98.2177 25.0624 98.2177C22.6403 98.2177 20.6768 100.208 20.6768 102.663C20.6768 105.119 22.6403 107.109 25.0624 107.109Z" fill="#26B1CE"/>
<path d="M50.0137 100.182H35.0577C33.6813 100.182 32.5635 101.294 32.5635 102.689C32.5635 104.084 33.6789 105.196 35.0577 105.196H50.0183C51.3948 105.196 52.5079 104.084 52.5079 102.689C52.5079 101.294 51.3925 100.182 50.0137 100.182Z" fill="#26B1CE"/>
<path d="M25.0624 119.72C27.4845 119.72 29.4481 117.73 29.4481 115.275C29.4481 112.819 27.4845 110.829 25.0624 110.829C22.6403 110.829 20.6768 112.819 20.6768 115.275C20.6768 117.73 22.6403 119.72 25.0624 119.72Z" fill="#26B1CE"/>
<path d="M50.0137 112.713H35.0577C33.6813 112.713 32.5635 113.879 32.5635 115.275C32.5635 116.67 33.6789 117.831 35.0577 117.831H50.0183C51.3948 117.831 52.5079 116.67 52.5079 115.275C52.5079 113.879 51.3925 112.713 50.0137 112.713Z" fill="#26B1CE"/>
<path d="M25.0621 133.196C27.4829 133.196 29.4454 131.206 29.4454 128.752C29.4454 126.298 27.4829 124.309 25.0621 124.309C22.6412 124.309 20.6787 126.298 20.6787 128.752C20.6787 131.206 22.6412 133.196 25.0621 133.196Z" fill="#26B1CE"/>
<path d="M50.0137 126.184H35.0577C33.6813 126.184 32.5635 127.35 32.5635 128.746C32.5635 130.141 33.6789 131.302 35.0577 131.302H50.0183C51.3948 131.302 52.5079 130.139 52.5079 128.746C52.5079 127.35 51.3925 126.184 50.0137 126.184Z" fill="#26B1CE"/>
</g>
<g clip-path="url(#clip1_63_2326)">
<path d="M95.1991 81.5705C96.0045 81.5705 150.745 81.5705 151.55 81.5705C154.686 81.5705 157.227 79.0246 157.227 75.8847C157.227 49.4704 160.443 32.5512 143.056 20.0813C142.169 9.98392 133.683 2.03735 123.375 2.03735C113.066 2.03735 104.581 9.98424 103.693 20.0813C86.19 32.6342 89.5219 49.8304 89.5219 75.8847C89.5216 79.0249 92.0636 81.5705 95.1991 81.5705ZM123.374 13.4092C128.011 13.4092 131.783 17.1871 131.783 21.831C131.783 26.5202 128.038 30.2526 123.374 30.2526C118.697 30.2526 114.966 26.5011 114.966 21.831C114.966 17.1874 118.738 13.4092 123.374 13.4092ZM106.715 32.5317C114.446 44.6491 132.309 44.6498 140.033 32.5317C153.122 47.0196 142.809 70.1984 123.374 70.1984C103.944 70.1984 93.6231 47.0247 106.715 32.5317Z" fill="#26B1CE"/>
<path d="M148.332 92.0955C133.189 83.396 114.133 83.0656 98.4151 92.0955C97.328 92.7201 97.1191 94.2018 98.0054 95.0891L122.036 119.157C122.775 119.897 123.973 119.897 124.712 119.157L148.742 95.0891C149.628 94.2015 149.42 92.7201 148.332 92.0955Z" fill="#26B1CE"/>
<path d="M91.4756 99.2711C90.7525 98.5468 89.5814 98.5255 88.8376 99.229C79.1257 108.422 73.0557 121.436 73.0557 135.845V153.187C73.0557 156.327 75.5977 158.873 78.7328 158.873H117.697C118.742 158.873 119.589 158.024 119.589 156.978V128.213C119.589 127.711 119.39 127.229 119.035 126.873L91.4756 99.2711Z" fill="#26B1CE"/>
<path d="M155.081 99.2708C155.804 98.5466 156.975 98.5252 157.719 99.2288C167.43 108.422 173.5 121.436 173.5 135.844V153.187C173.5 156.327 170.958 158.872 167.823 158.872H128.859C127.814 158.872 126.967 158.024 126.967 156.977V128.213C126.967 127.711 127.166 127.229 127.521 126.873L155.081 99.2708Z" fill="#26B1CE"/>
</g>
<defs>
<clipPath id="clip0_63_2326">
<rect width="73.854" height="74.8657" fill="white" transform="translate(0 72)"/>
</clipPath>
<clipPath id="clip1_63_2326">
<rect width="99.8375" height="163" fill="white" transform="translate(73.6113)"/>
</clipPath>
</defs>
</svg>
