<svg width="32" height="33" viewBox="0 0 32 33" fill="none" xmlns="http://www.w3.org/2000/svg">
<g clip-path="url(#clip0_63_2851)">
<rect width="32" height="32" transform="translate(0 0.47168)" fill="white"/>
<path d="M16 0.47168C7.168 0.47168 0 7.63968 0 16.4717C0 25.3037 7.168 32.4717 16 32.4717C24.832 32.4717 32 25.3037 32 16.4717C32 7.63968 24.832 0.47168 16 0.47168ZM23.424 11.3517C23.184 13.8797 22.144 20.0237 21.616 22.8557C21.392 24.0557 20.944 24.4557 20.528 24.5037C19.6 24.5837 18.896 23.8957 18 23.3037C16.592 22.3757 15.792 21.7997 14.432 20.9037C12.848 19.8637 13.872 19.2877 14.784 18.3597C15.024 18.1197 19.12 14.3917 19.2 14.0557C19.2111 14.0048 19.2096 13.952 19.1957 13.9018C19.1818 13.8516 19.1558 13.8055 19.12 13.7677C19.024 13.6877 18.896 13.7197 18.784 13.7357C18.64 13.7677 16.4 15.2557 12.032 18.1997C11.392 18.6317 10.816 18.8557 10.304 18.8397C9.728 18.8237 8.64 18.5197 7.824 18.2477C6.816 17.9277 6.032 17.7517 6.096 17.1917C6.128 16.9037 6.528 16.6157 7.28 16.3117C11.952 14.2797 15.056 12.9357 16.608 12.2957C21.056 10.4397 21.968 10.1197 22.576 10.1197C22.704 10.1197 23.008 10.1517 23.2 10.3117C23.36 10.4397 23.408 10.6157 23.424 10.7437C23.408 10.8397 23.44 11.1277 23.424 11.3517Z" fill="#B3B3B3"/>
</g>
<defs>
<clipPath id="clip0_63_2851">
<rect width="32" height="32" fill="white" transform="translate(0 0.47168)"/>
</clipPath>
</defs>
</svg>
