<svg width="32" height="33" viewBox="0 0 32 33" fill="none" xmlns="http://www.w3.org/2000/svg">
<g clip-path="url(#clip0_63_2848)">
<path d="M12.652 0.477145L13.624 0.473145H18.376L19.3493 0.477145L20.568 0.490478L21.1453 0.499811L21.7027 0.514478L22.24 0.533145L22.7573 0.554478L23.256 0.582478L23.736 0.615811L24.196 0.655811L24.64 0.699811C26.96 0.961145 28.5507 1.52114 29.7507 2.72114C30.9507 3.92114 31.5107 5.51048 31.772 7.83181L31.8173 8.27581L31.856 8.73714L31.8893 9.21714L31.916 9.71448L31.9493 10.4985L31.9653 11.0451L31.9827 11.9038L31.9947 13.1238L32 14.4305L31.9987 18.8478L31.9947 19.8211L31.9813 21.0398L31.972 21.6171L31.9573 22.1745L31.9387 22.7118L31.9173 23.2291L31.8893 23.7278L31.856 24.2078L31.816 24.6678L31.772 25.1118C31.5107 27.4318 30.9507 29.0225 29.7507 30.2225C28.5507 31.4225 26.9613 31.9825 24.64 32.2438L24.196 32.2891L23.7347 32.3278L23.2547 32.3611L22.7573 32.3878L21.9733 32.4211L21.4267 32.4371L20.568 32.4545L19.348 32.4665L18.0413 32.4718L13.624 32.4705L12.6507 32.4665L11.432 32.4531L10.8547 32.4438L10.2973 32.4291L9.76 32.4105L9.24267 32.3891L8.744 32.3611L8.264 32.3278L7.804 32.2878L7.36 32.2438C5.04 31.9825 3.44933 31.4225 2.24933 30.2225C1.04933 29.0225 0.489333 27.4331 0.228 25.1118L0.182667 24.6678L0.144 24.2065L0.110667 23.7265L0.084 23.2291L0.0506667 22.4451L0.0346667 21.8985L0.0173333 21.0398L0.00533333 19.8198L0 18.5131L0.00133333 14.0958L0.00533333 13.1225L0.0186667 11.9038L0.028 11.3265L0.0426667 10.7691L0.0613333 10.2318L0.0826667 9.71448L0.110667 9.21581L0.144 8.73581L0.184 8.27581L0.228 7.83181C0.489333 5.51181 1.04933 3.92114 2.24933 2.72114C3.44933 1.52114 5.03867 0.961145 7.36 0.699811L7.804 0.654478L8.26533 0.615811L8.74533 0.582478L9.24267 0.555811L10.0267 0.522478L10.5733 0.506478L11.432 0.489145L12.652 0.477145ZM9.05333 10.2051H5.4C5.57333 18.5251 9.73333 23.5251 17.0267 23.5251H17.44V18.7651C20.12 19.0318 22.1467 20.9918 22.96 23.5251H26.7467C25.7067 19.7385 22.9733 17.6451 21.2667 16.8451C22.9733 15.8585 25.3733 13.4585 25.9467 10.2051H22.5067C21.76 12.8451 19.5467 15.2451 17.44 15.4718V10.2051H14V19.4318C11.8667 18.8985 9.17333 16.3118 9.05333 10.2051Z" fill="#B3B3B3"/>
</g>
<defs>
<clipPath id="clip0_63_2848">
<rect width="32" height="32" fill="white" transform="translate(0 0.47168)"/>
</clipPath>
</defs>
</svg>
