<svg width="32" height="33" viewBox="0 0 32 33" fill="none" xmlns="http://www.w3.org/2000/svg">
<path d="M31.984 7.74724C31.9691 7.06085 31.9141 6.37591 31.8192 5.69594C31.7045 5.09122 31.5091 4.50462 31.2384 3.95185C30.6464 2.78248 29.697 1.83239 28.528 1.23972C27.9787 0.970462 27.396 0.775669 26.7952 0.660489C26.11 0.563897 25.4198 0.507797 24.728 0.492481C24.4352 0.48128 24.056 0.47648 23.88 0.47648L8.1232 0.47168C7.9472 0.47168 7.568 0.47648 7.2752 0.48768C6.58884 0.502562 5.90393 0.557592 5.224 0.652489C4.61931 0.767214 4.03274 0.962567 3.48 1.23332C2.31068 1.8253 1.36065 2.77483 0.768 3.94385C0.498758 4.49316 0.303974 5.07593 0.1888 5.67674C0.0916776 6.36191 0.035046 7.05221 0.0192001 7.74404C0.00960013 8.03686 0.00320015 8.41608 0.00320015 8.59208L0 24.3497C0 24.5257 0.00479998 24.9049 0.016 25.1977C0.0308807 25.8841 0.085908 26.569 0.1808 27.249C0.29552 27.8537 0.490863 28.4403 0.7616 28.9931C1.35356 30.1625 2.30303 31.1126 3.472 31.7052C4.02128 31.9745 4.60402 32.1693 5.2048 32.2845C5.88997 32.3811 6.58023 32.4372 7.272 32.4525C7.5648 32.4637 7.944 32.4685 8.12 32.4685L23.8768 32.4717C24.0528 32.4717 24.432 32.4669 24.7248 32.4557C25.4112 32.4408 26.0961 32.3858 26.776 32.2909C27.3807 32.1761 27.9673 31.9808 28.52 31.71C29.6899 31.1183 30.6405 30.1688 31.2336 28.9995C31.5028 28.4502 31.6976 27.8674 31.8128 27.2666C31.9099 26.5815 31.9666 25.8912 31.9824 25.1993C31.992 24.9065 31.9984 24.5273 31.9984 24.3513L32 8.59529C32 8.41928 31.9952 8.04006 31.984 7.74724ZM16.3472 27.6042H16.3424C14.4376 27.6056 12.5631 27.128 10.8912 26.2154L4.8432 27.801L6.4624 21.892C5.20873 19.7163 4.7078 17.1879 5.03728 14.6986C5.36676 12.2093 6.50825 9.89828 8.28476 8.12379C10.0613 6.3493 12.3736 5.21051 14.8631 4.88397C17.3527 4.55744 19.8804 5.0614 22.0544 6.31772C24.2284 7.57405 25.9272 9.51255 26.8874 11.8327C27.8477 14.1528 28.0157 16.7249 27.3654 19.1502C26.7152 21.5756 25.283 23.7186 23.2909 25.2471C21.2988 26.7756 18.8581 27.6041 16.3472 27.6042Z" fill="#B3B3B3"/>
<path d="M16.352 6.71265C14.6577 6.71216 12.9943 7.1656 11.5346 8.02582C10.0749 8.88604 8.87237 10.1216 8.05196 11.6041C7.23155 13.0865 6.82327 14.7617 6.86956 16.4554C6.91585 18.1492 7.41503 19.7996 8.31519 21.235L8.54079 21.5934L7.58239 25.0912L11.1712 24.1503L11.5168 24.3551C12.9772 25.2217 14.6443 25.6783 16.3424 25.6768H16.3472C18.8621 25.6772 21.2741 24.6785 23.0527 22.9005C24.8313 21.1224 25.8308 18.7105 25.8312 16.1955C25.8316 13.6805 24.833 11.2683 23.055 9.48965C21.277 7.71097 18.8653 6.71148 16.3504 6.71105L16.352 6.71265ZM21.9264 20.2653C21.717 20.612 21.4379 20.9114 21.1069 21.1446C20.7759 21.3779 20.4 21.54 20.0032 21.6206C19.4042 21.7235 18.7895 21.6852 18.208 21.5086C17.6562 21.3375 17.1141 21.1367 16.584 20.907C14.6156 19.9191 12.9377 18.4364 11.7152 16.6043C11.048 15.7564 10.6432 14.732 10.5504 13.657C10.543 13.2134 10.6279 12.773 10.7998 12.364C10.9717 11.9549 11.2267 11.5861 11.5488 11.2809C11.6443 11.1726 11.7611 11.0851 11.8918 11.0237C12.0225 10.9623 12.1644 10.9284 12.3088 10.9241C12.4976 10.9241 12.688 10.9241 12.8544 10.9337C13.0304 10.9417 13.264 10.8665 13.4944 11.4233C13.7344 11.9929 14.304 13.3962 14.3744 13.5386C14.4193 13.6134 14.445 13.6981 14.4492 13.7852C14.4534 13.8723 14.4359 13.9591 14.3984 14.0378C14.3269 14.2092 14.231 14.3692 14.1136 14.513C13.9696 14.6795 13.8144 14.8843 13.6864 15.0123C13.5424 15.1547 13.3952 15.3083 13.56 15.5931C13.9887 16.3256 14.523 16.9909 15.1456 17.5676C15.8225 18.1679 16.5982 18.6464 17.4384 18.9821C17.7232 19.1261 17.8896 19.1005 18.056 18.9101C18.2224 18.7197 18.768 18.078 18.9584 17.7932C19.1488 17.5084 19.3376 17.5564 19.5984 17.6508C19.8592 17.7452 21.2624 18.4348 21.5472 18.5788C21.832 18.7229 22.0224 18.7917 22.0928 18.9101C22.1697 19.3684 22.1119 19.8392 21.9264 20.2653Z" fill="#B3B3B3"/>
</svg>
